<?xml version="1.0" standalone="no"?>
<!DOCTYPE svg PUBLIC "-//W3C//DTD SVG 20010904//EN"
 "http://www.w3.org/TR/2001/REC-SVG-20010904/DTD/svg10.dtd">
<svg version="1.0" xmlns="http://www.w3.org/2000/svg"
 width="866.000000pt" height="650.000000pt" viewBox="0 0 866.000000 650.000000"
 preserveAspectRatio="xMidYMid meet">

<g transform="translate(0.000000,650.000000) scale(0.100000,-0.100000)"
fill="#000000" stroke="none">
<path d="M5025 4136 c-360 -63 -586 -278 -587 -561 -1 -91 18 -156 65 -224 67
-97 151 -161 344 -261 207 -106 266 -178 218 -269 -42 -82 -132 -117 -300
-115 -139 2 -246 24 -373 78 -56 23 -84 31 -87 23 -2 -7 -16 -86 -30 -177 -14
-91 -28 -172 -31 -182 -12 -40 231 -97 457 -105 315 -12 538 56 695 212 118
116 171 252 161 412 -11 188 -120 315 -387 448 -175 88 -245 142 -256 200 -7
39 13 84 52 114 96 75 371 71 551 -9 25 -11 47 -19 48 -18 1 2 14 80 29 173
15 94 29 177 32 185 5 19 -23 30 -146 60 -112 27 -342 35 -455 16z"/>
<path d="M2991 3823 c-62 -164 -163 -432 -224 -595 -61 -164 -115 -294 -118
-290 -3 4 -14 48 -23 97 -22 115 -40 173 -84 260 -79 158 -219 333 -361 449
-92 75 -205 149 -209 136 -2 -5 10 -60 27 -122 62 -228 131 -481 216 -798 48
-179 104 -386 124 -460 l37 -135 243 0 244 0 87 210 c373 898 629 1514 637
1533 4 9 -47 12 -239 12 l-245 0 -112 -297z"/>
<path d="M3776 4093 c-6 -26 -66 -393 -216 -1313 -33 -201 -63 -377 -66 -392
l-6 -28 230 0 230 0 6 28 c5 25 159 955 241 1457 19 121 38 232 41 248 l6 27
-230 0 -230 0 -6 -27z"/>
<path d="M6375 4111 c-41 -10 -75 -29 -107 -58 -30 -29 -50 -73 -288 -633 -95
-223 -233 -547 -307 -720 -74 -173 -137 -321 -140 -328 -4 -10 45 -12 237 -10
l243 3 50 133 50 132 295 -2 295 -3 13 -55 c6 -30 20 -90 29 -132 l17 -78 209
0 c202 0 209 1 209 20 0 11 -40 208 -89 437 -50 230 -126 589 -171 798 -44
209 -86 407 -93 440 l-13 60 -205 2 c-112 0 -217 -2 -234 -6z m186 -804 c36
-172 65 -315 63 -318 -7 -12 -374 -9 -374 2 0 21 234 639 239 633 3 -3 36
-146 72 -317z"/>
</g>
</svg>
